<svg width="32" height="32" viewBox="0 0 32 32" fill="none" xmlns="http://www.w3.org/2000/svg">
<g clip-path="url(#clip0_2_6119)">
<path fill-rule="evenodd" clip-rule="evenodd" d="M30.6666 4C31.403 4 32 4.59695 32 5.33333V13.3333C32 14.0697 31.403 14.6667 30.6666 14.6667H22.6666C21.9303 14.6667 21.3333 14.0697 21.3333 13.3333C21.3333 12.597 21.9303 12 22.6666 12H29.3333V5.33333C29.3333 4.59695 29.9303 4 30.6666 4Z" fill="#DC2626"/>
<path fill-rule="evenodd" clip-rule="evenodd" d="M0 18.6666C0 17.9302 0.596954 17.3333 1.33333 17.3333H9.33333C10.0697 17.3333 10.6667 17.9302 10.6667 18.6666C10.6667 19.403 10.0697 19.9999 9.33333 19.9999H2.66667V26.6666C2.66667 27.403 2.06971 27.9999 1.33333 27.9999C0.596954 27.9999 0 27.403 0 26.6666V18.6666Z" fill="#DC2626"/>
<path fill-rule="evenodd" clip-rule="evenodd" d="M18.9564 5.75663C17.2256 5.25597 15.396 5.20193 13.6386 5.59957C11.8812 5.99721 10.2532 6.83356 8.9064 8.03058C8.356 8.51978 7.51324 8.47017 7.02404 7.91977C6.53484 7.36937 6.58445 6.52661 7.13485 6.03741C8.81831 4.54113 10.8534 3.4957 13.0501 2.99865C15.2469 2.5016 17.5338 2.56914 19.6974 3.19497C21.8541 3.81881 23.8183 4.97712 25.4079 6.56236L31.5797 12.3618C32.1163 12.866 32.1426 13.7098 31.6383 14.2465C31.1341 14.7831 30.2903 14.8094 29.7536 14.3051L23.567 8.49177C23.5568 8.48223 23.5468 8.47253 23.537 8.46267C22.2632 7.18826 20.6873 6.25729 18.9564 5.75663ZM0.361667 17.7537C0.865922 17.2171 1.70973 17.1908 2.24637 17.6951L8.43304 23.5084C8.44319 23.518 8.4532 23.5277 8.46305 23.5375C9.73682 24.8119 11.3127 25.7429 13.0436 26.2436C14.7745 26.7442 16.604 26.7983 18.3614 26.4006C20.1188 26.003 21.7468 25.1666 23.0936 23.9696C24.4404 22.7726 25.462 21.2539 26.0631 19.5553C26.3087 18.8611 27.0706 18.4975 27.7648 18.7431C28.459 18.9888 28.8226 19.7507 28.577 20.4449C27.8256 22.5682 26.5486 24.4665 24.8652 25.9628C23.1817 27.4591 21.1466 28.5045 18.9499 29.0016C16.7531 29.4986 14.4662 29.4311 12.3026 28.8052C10.1459 28.1814 8.18169 27.0231 6.59214 25.4378L0.420302 19.6384C-0.116337 19.1342 -0.142589 18.2904 0.361667 17.7537Z" fill="#DC2626"/>
</g>
<defs>
<clipPath id="clip0_2_6119">
<rect width="32" height="32" fill="white"/>
</clipPath>
</defs>
</svg>
