<svg width="24" height="30" viewBox="0 0 24 30" fill="none" xmlns="http://www.w3.org/2000/svg">
<path fill-rule="evenodd" clip-rule="evenodd" d="M11.5318 0.418146C11.8337 0.304954 12.1663 0.304954 12.4682 0.418146L23.1348 4.41815C23.6552 4.6133 24 5.11079 24 5.66658V14.9999C24 19.5952 20.9577 23.267 18.2113 25.67C16.8102 26.8961 15.4153 27.8544 14.3733 28.5056C13.851 28.8321 13.4138 29.0836 13.1041 29.255C12.9492 29.3407 12.8259 29.4066 12.7396 29.4519C12.6964 29.4746 12.6624 29.4921 12.6383 29.5045L12.6097 29.5191L12.601 29.5234L12.5982 29.5249C12.5977 29.5251 12.5963 29.5258 12 28.3333C11.4037 29.5258 11.4033 29.5256 11.4029 29.5254L11.399 29.5234L11.3903 29.5191L11.3617 29.5045C11.3376 29.4921 11.3036 29.4746 11.2604 29.4519C11.1741 29.4066 11.0508 29.3407 10.8959 29.255C10.5862 29.0836 10.149 28.8321 9.62667 28.5056C8.58472 27.8544 7.18984 26.8961 5.78866 25.67C3.04233 23.267 0 19.5952 0 14.9999V5.66658C0 5.11079 0.344764 4.6133 0.865169 4.41815L11.5318 0.418146ZM12 28.3333L11.4029 29.5254C11.7783 29.7131 12.2209 29.7135 12.5963 29.5258L12 28.3333ZM12 26.8169C12.2555 26.6721 12.5823 26.4803 12.96 26.2443C13.9181 25.6455 15.1898 24.7705 16.4553 23.6631C19.0423 21.3995 21.3333 18.4047 21.3333 14.9999V6.59059L12 3.09059L2.66667 6.59059V14.9999C2.66667 18.4047 4.95767 21.3995 7.54467 23.6631C8.81016 24.7705 10.0819 25.6455 11.04 26.2443C11.4177 26.4803 11.7445 26.6721 12 26.8169Z" fill="#16A34A"/>
</svg>
