<svg width="16" height="12" viewBox="0 0 16 12" fill="none" xmlns="http://www.w3.org/2000/svg"><path d="M15.646 1.953l.02.13A2.028 2.028 0 0 0 14.287.675l-.014-.003C13.026.333 8.006.333 8.006.333S3 .327 1.74.673A2.03 2.03 0 0 0 .35 2.068l-.003.014c-.466 2.434-.47 5.36.02 7.965l-.02-.132a2.028 2.028 0 0 0 1.378 1.408l.014.003c1.246.34 6.267.34 6.267.34s5.006 0 6.267-.34a2.029 2.029 0 0 0 1.389-1.397l.003-.014c.212-1.132.334-2.435.334-3.765l-.001-.148V5.85c0-1.331-.12-2.634-.353-3.897zM6.405 8.434V3.572l4.177 2.435-4.177 2.427z" fill="#043964"/></svg>